<svg width="1024" height="1024" viewBox="0 0 1024 1024" fill="none" xmlns="http://www.w3.org/2000/svg">
<rect width="1024" height="1024" fill="#E6660B"/>
<path d="M264.593 578.585C283.969 614.465 316.161 746.497 350.712 823.995C385.263 901.492 644.475 869.202 685.854 807.491C727.232 745.779 762.642 698.42 810.007 661.106C857.371 623.793 930.571 581.456 879.618 547.73C828.665 514.004 696.618 624.51 668.63 581.456C640.642 538.402 635.954 479.499 642.424 370.999C648.894 262.499 668.63 185 616.424 172.499C564.218 159.998 574.619 419.285 545.913 419.285C533.989 419.285 522.519 420.907 520.075 409.238C485.672 245 477.924 154 430.424 154C382.924 154 408.124 238 440.416 431.483C442.543 444.225 413.299 450.035 408.124 438.659C321.289 247.785 305.924 191 264.593 206.5C223.261 222 252.506 290.14 275.924 353.999C296.45 409.97 334.204 482.431 334.204 482.431C334.204 482.431 317.819 496.823 312.675 489.606C223.672 364.749 194.263 294.262 154.793 313.084C81.4241 348.072 245.216 542.707 264.593 578.585Z" fill="white"/>
</svg>
